# xmcd
#
# Track frame offsets: 
#        150
#        13197
#        26662
#        40370
#        53378
#        65368
#        78135
#        91804
#        103879
#        116972
#        130450
#        141913
#        154065
#        165456
#        177571
#        190567
#        202366
#        213640
#        225495
#        236444
#        248297
#        258441
#        270306
#
# Disc length: 3751 seconds
#
# Revision: 8
# Processed by: cddbd v1.5.2PL0 Copyright (c) Steve Scherf et al.
# Submitted via: ExactAudioCopyFreeDBPlugin 1.0
#
DISCID=3b0ea517
DTITLE=Robert Johnson - Delta Blues Legend
DYEAR=1999
DGENRE=Blues
TTITLE0=Kindhearted Woman Blues
TTITLE1=I Believe I'll Dust My Broom
TTITLE2=Sweet Home Chicago
TTITLE3=Rambling On My Mind
TTITLE4=When You Got a Good Friend
TTITLE5=Come On In My Kitchen
TTITLE6=Terraplane Blues
TTITLE7=Phonograph Blues
TTITLE8=32-20 Blues
TTITLE9=They're Red Hot
TTITLE10=Dead Shrimp Blues
TTITLE11=Cross Road Blues
TTITLE12=Walking Blues
TTITLE13=Last Fair Deal Gone Down
TTITLE14=Preaching Blues (Up Jumped The Devil)
TTITLE15=If I Had Possession Over Judgement Day
TTITLE16=Stones In My Passway
TTITLE17=I'm a Steady Rollin Man
TTITLE18=From Four Till Late
TTITLE19=Hellhound On My Trail
TTITLE20=Little Queen Of Spades
TTITLE21=Me And The Devil Blues
TTITLE22=Love In Vain
EXTD=
EXTT0=
EXTT1=
EXTT2=
EXTT3=
EXTT4=
EXTT5=
EXTT6=
EXTT7=
EXTT8=
EXTT9=
EXTT10=
EXTT11=
EXTT12=
EXTT13=
EXTT14=
EXTT15=
EXTT16=
EXTT17=
EXTT18=
EXTT19=
EXTT20=
EXTT21=
EXTT22=
PLAYORDER=
